<svg xmlns="http://www.w3.org/2000/svg" viewBox="0 0 40 40"><path class="facebook_border_svg" d="M20 2.5c9.6 0 17.5 7.9 17.5 17.5S29.6 37.5 20 37.5c-9.7 0-17.5-7.9-17.5-17.5S10.3 2.5 20 2.5m0 34.2c9.5-.2 16.9-7.6 16.7-16.7-.1-9.2-7.5-16.7-16.7-16.7S3.3 10.8 3.3 20 10.8 36.9 20 36.7" fill="{color_0}"/><path class="facebook_bck_svg" fill="{color_1}" d="M20 2.5C10.3 2.5 2.5 10.4 2.5 20S10.3 37.5 20 37.5c9.6 0 17.5-7.9 17.5-17.5S29.6 2.5 20 2.5m4.7 10.8h-2.5c-1.3 0-1.5.8-1.5 1.7v1.7h3.9L24 20h-3.3v10.1h-3.3V20h-2.1v-3.3h2.1v-2c0-2.7.8-4.7 3.8-4.7h3.6v3.3z"/><path class="facebook_f_svg" fill-rule="evenodd" d="M17.3 14.6v2h-2.1V20h2.1v10.1h3.3V20H24l.5-3.3h-3.9V15c0-.9.3-1.7 1.5-1.7h2.5V9.9H21c-2.8 0-3.7 2-3.7 4.7" fill="{color_2}"/></svg>