<svg xmlns="http://www.w3.org/2000/svg" viewBox="0 0 40 40"><g fill-rule="evenodd"><path class="twitter_border_svg" d="M20 2.5C10.4 2.5 2.5 10.4 2.5 20S10.4 37.5 20 37.5 37.5 29.6 37.5 20 29.6 2.5 20 2.5m0 34.2c-9.2 0-16.7-7.5-16.7-16.7S10.8 3.3 20 3.3 36.7 10.8 36.7 20 29.2 36.7 20 36.7" fill="{color_0}"/><path class="twitter_bck_svg" d="M20 2.5C10.3 2.5 2.5 10.4 2.5 20S10.3 37.5 20 37.5c9.6 0 17.5-7.9 17.5-17.5S29.6 2.5 20 2.5M27.5 16v.5c0 5.4-3.9 11.6-11 11.6-2.2 0-4.2-.7-5.9-1.9.3 0 .6.1.9.1 1.8 0 3.5-.7 4.8-1.7-1.7 0-3.1-1.2-3.6-2.9.2.1.5.1.7.1.3 0 .7 0 1-.1-1.8-.4-3.1-2.1-3.1-4.1v-.1c.5.3 1.1.5 1.8.5-1-.7-1.7-2-1.7-3.5 0-.8.2-1.5.5-2.1 1.9 2.5 4.8 4.2 8 4.4-.1-.3-.1-.6-.1-.9 0-2.3 1.7-4.1 3.9-4 1.1 0 2.1.5 2.8 1.3.9-.2 1.7-.5 2.5-.9-.3.9-.9 1.7-1.7 2.2.8-.1 1.5-.3 2.2-.6-.6.8-1.3 1.5-2 2.1" fill="{color_1}"/><path class="twitter_t_svg" fill="{color_2}" d="M28.9 12.3c-.7.4-1.6.8-2.5.9-.7-.8-1.7-1.3-2.8-1.3-2.1 0-3.9 1.8-3.9 4 0 .3 0 .6.1.9-3.2-.2-6.1-1.9-8-4.4-.3.6-.5 1.3-.5 2.1 0 1.4.7 2.7 1.7 3.5-.6 0-1.2-.2-1.8-.5v.1c0 2 1.3 3.7 3.1 4.1-.3.1-.7.1-1 .1-.3 0-.5 0-.7-.1.5 1.6 1.9 2.8 3.6 2.9-1.3 1.1-3 1.8-4.8 1.7-.3 0-.6 0-.9-.1 1.7 1.2 3.7 1.9 5.9 1.9 7.1 0 11-6.2 11-11.6V16c.8-.6 1.4-1.3 1.9-2.1-.7.3-1.4.5-2.2.6.9-.5 1.5-1.2 1.8-2.2"/></g></svg>